<?xml version="1.0" standalone="no"?><!DOCTYPE svg PUBLIC "-//W3C//DTD SVG 1.1//EN" "http://www.w3.org/Graphics/SVG/1.1/DTD/svg11.dtd"><svg t="1767703331590" class="icon" viewBox="0 0 1024 1024" version="1.1" xmlns="http://www.w3.org/2000/svg" p-id="18482" xmlns:xlink="http://www.w3.org/1999/xlink" width="200" height="200"><path d="M512.48 975.68c-256.8 0.48-466.56-208.8-467.04-466.08C44.96 251.84 253.76 41.6 511.04 41.6c258.72-0.48 468.48 208.32 468.96 465.6 0 259.2-208.32 468-467.52 468.48z m37.44-106.08c45.12-1.92 84.96-18.24 119.04-47.52 14.88-12.48 26.88-27.36 35.52-44.64 6.72-14.4 4.8-25.92-7.68-36-6.72-5.28-14.4-10.56-22.08-13.92-26.88-11.52-54.24-22.56-81.6-33.12-8.16-2.88-16.8-4.32-25.44-5.28-21.6-1.92-40.32 5.76-56.64 19.68-5.76 4.8-11.04 10.08-17.28 14.4-21.6 15.84-43.2 15.36-63.36-2.4-45.12-40.8-85.44-84.96-121.92-133.92-10.08-13.44-16.8-27.84-20.64-44.16-2.88-11.52-2.4-22.08 5.28-31.2 2.88-3.84 5.76-7.68 9.12-11.04 24.96-24.48 32.16-54.24 25.44-87.36-5.28-27.36-15.36-53.28-26.88-78.72-3.36-7.2-7.68-14.4-12.48-20.64-12.48-16.32-27.84-20.64-46.56-12-10.08 4.8-20.16 11.04-28.8 18.24-24 19.2-43.2 42.24-62.4 66.24-2.4 2.88-3.84 6.72-4.32 10.56-0.96 10.56-1.92 20.64-0.96 31.2 1.44 15.84 2.4 32.16 7.2 46.56 22.08 64.32 54.72 122.4 95.04 176.64 69.6 93.6 156.48 164.64 264 210.24 13.44 5.76 25.44 8.64 38.4 8.16zM488.48 272.48c88.32-1.92 162.24 29.28 220.32 95.04 58.08 65.76 80.16 143.04 70.56 229.92H852.8c0-0.96 0.48-1.92 0.48-2.4 0-0.96 0.48-2.4 0.48-3.36 2.88-39.36 0.48-77.76-8.64-116.16-36.48-155.52-171.84-274.08-337.44-277.92H488c0.48 25.44 0.48 49.92 0.48 74.88zM488 422.72c47.52-2.88 86.88 13.44 116.16 49.92 29.28 36.48 36.96 78.72 25.44 123.84 0.48 0.48 0.96 0.48 0.96 0.48h71.52c0.96 0 2.88-1.92 3.36-3.36 2.88-17.76 3.84-35.04 1.92-52.8-6.24-63.36-34.56-115.2-85.44-153.6-37.44-28.32-80.16-41.28-127.2-39.84-6.24 0-6.24 0-6.24 6.72v38.88c-0.48 10.08-0.48 19.68-0.48 29.76z" p-id="18483"></path></svg>